{
  "accessors": [
    {
      "bufferView": 2,
      "componentType": 5126,
      "count": 5931,
      "max": [
        6.259422779083252,
        -137.1878204345703,
        32.82341766357422
      ],
      "min": [
        -20.22096061706543,
        -138.9137725830078,
        -1.368891954421997
      ],
      "type": "VEC3"
    },
    {
      "bufferView": 2,
      "byteOffset": 71172,
      "componentType": 5126,
      "count": 5931,
      "max": [
        0.9836834073066711,
        0.9998350739479065,
        0.9915571808815002
      ],
      "min": [
        -0.9936777949333191,
        -0.9999992251396179,
        -0.9959823489189148
      ],
      "type": "VEC3"
    },
    {
      "bufferView": 1,
      "componentType": 5126,
      "count": 5931,
      "max": [
        0.9999449849128723,
        0.8632810115814209
      ],
      "min": [
        5.8000001445179805e-05,
        2.499999936844688e-05
      ],
      "type": "VEC2"
    },
    {
      "bufferView": 0,
      "componentType": 5125,
      "count": 29997,
      "type": "SCALAR"
    }
  ],
  "asset": {
    "extras": {
      "author": "Forest Run Forever (https://sketchfab.com/2w)",
      "license": "CC-BY-4.0 (http://creativecommons.org/licenses/by/4.0/)",
      "source": "https://sketchfab.com/3d-models/field-2d0f3ccc3a5f4576ab40b9d4bb80cf56",
      "title": "Field"
    },
    "generator": "Sketchfab-12.68.0",
    "version": "2.0"
  },
  "bufferViews": [
    {
      "buffer": 0,
      "byteLength": 119988,
      "name": "floatBufferViews",
      "target": 34963
    },
    {
      "buffer": 0,
      "byteLength": 47448,
      "byteOffset": 119988,
      "byteStride": 8,
      "name": "floatBufferViews",
      "target": 34962
    },
    {
      "buffer": 0,
      "byteLength": 142344,
      "byteOffset": 167436,
      "byteStride": 12,
      "name": "floatBufferViews",
      "target": 34962
    }
  ],
  "buffers": [
    {
      "byteLength": 309780,
      "uri": "scene.bin"
    }
  ],
  "extensionsUsed": [
    "KHR_materials_unlit"
  ],
  "images": [
    {
      "uri": "textures/field_baseColor.jpeg"
    }
  ],
  "materials": [
    {
      "doubleSided": true,
      "extensions": {
        "KHR_materials_unlit": {}
      },
      "name": "field",
      "pbrMetallicRoughness": {
        "baseColorTexture": {
          "index": 0
        },
        "metallicFactor": 0.0
      }
    }
  ],
  "meshes": [
    {
      "name": "Object_0",
      "primitives": [
        {
          "attributes": {
            "NORMAL": 1,
            "POSITION": 0,
            "TEXCOORD_0": 2
          },
          "indices": 3,
          "material": 0,
          "mode": 4
        }
      ]
    }
  ],
  "nodes": [
    {
      "children": [
        1
      ],
      "matrix": [
        0.9342290163040161,
        -0.027129914611578067,
        0.3556404113769531,
        0.0,
        -0.03243174031376839,
        -0.9994338750839233,
        0.008953193202614562,
        0.0,
        0.35519617795944214,
        -0.019898369908332617,
        -0.9345799684524536,
        0.0,
        -10.522643089294434,
        -122.12201690673831,
        156.46809387207028,
        1.0
      ],
      "name": "Sketchfab_model"
    },
    {
      "children": [
        2
      ],
      "name": "field.obj.cleaner.materialmerger.gles"
    },
    {
      "mesh": 0,
      "name": "Object_2"
    }
  ],
  "samplers": [
    {
      "magFilter": 9729,
      "minFilter": 9987,
      "wrapS": 10497,
      "wrapT": 10497
    }
  ],
  "scene": 0,
  "scenes": [
    {
      "name": "Sketchfab_Scene",
      "nodes": [
        0
      ]
    }
  ],
  "textures": [
    {
      "sampler": 0,
      "source": 0
    }
  ]
}
