{
  "accessors": [
    {
      "bufferView": 2,
      "componentType": 5126,
      "count": 65532,
      "max": [
        8.127886772155762,
        8.123908996582031,
        3.998581886291504
      ],
      "min": [
        -8.133198738098145,
        -8.120569229125977,
        -1.840859055519104
      ],
      "type": "VEC3"
    },
    {
      "bufferView": 2,
      "byteOffset": 786384,
      "componentType": 5126,
      "count": 65532,
      "max": [
        0.999978244304657,
        0.9999303817749023,
        0.9999998211860657
      ],
      "min": [
        -0.9999964833259583,
        -0.9999545812606812,
        -0.9999094009399414
      ],
      "type": "VEC3"
    },
    {
      "bufferView": 3,
      "componentType": 5126,
      "count": 65532,
      "max": [
        0.9999707937240601,
        0.9999789595603943,
        0.9999788999557495,
        1.0
      ],
      "min": [
        -0.99998939037323,
        -0.9999997615814209,
        -0.9999507069587708,
        -1.0
      ],
      "type": "VEC4"
    },
    {
      "bufferView": 1,
      "componentType": 5126,
      "count": 65532,
      "max": [
        0.9985349774360657,
        0.9933059811592102
      ],
      "min": [
        0.0010000000474974513,
        0.0009950000094249845
      ],
      "type": "VEC2"
    },
    {
      "bufferView": 0,
      "componentType": 5125,
      "count": 255957,
      "type": "SCALAR"
    },
    {
      "bufferView": 2,
      "byteOffset": 1572768,
      "componentType": 5126,
      "count": 47695,
      "max": [
        8.127877235412598,
        8.12390422821045,
        3.998581886291504
      ],
      "min": [
        -8.133171081542969,
        -8.120569229125977,
        -1.840859055519104
      ],
      "type": "VEC3"
    },
    {
      "bufferView": 2,
      "byteOffset": 2145108,
      "componentType": 5126,
      "count": 47695,
      "max": [
        0.999896764755249,
        0.9997545480728149,
        0.9999998211860657
      ],
      "min": [
        -0.9997367858886719,
        -0.9999502897262573,
        -0.9999514222145081
      ],
      "type": "VEC3"
    },
    {
      "bufferView": 3,
      "byteOffset": 1048512,
      "componentType": 5126,
      "count": 47695,
      "max": [
        0.9999983906745911,
        0.9999760985374451,
        0.9999096989631653,
        1.0
      ],
      "min": [
        -0.9999901056289673,
        -0.9999992847442627,
        -0.9998475313186646,
        -1.0
      ],
      "type": "VEC4"
    },
    {
      "bufferView": 1,
      "byteOffset": 524256,
      "componentType": 5126,
      "count": 47695,
      "max": [
        0.9990000128746033,
        0.99378502368927
      ],
      "min": [
        0.0010000000474974513,
        0.0009950000094249845
      ],
      "type": "VEC2"
    },
    {
      "bufferView": 0,
      "byteOffset": 1023828,
      "componentType": 5125,
      "count": 88413,
      "type": "SCALAR"
    }
  ],
  "asset": {
    "extras": {
      "author": "looppy (https://sketchfab.com/looppy)",
      "license": "CC-BY-4.0 (http://creativecommons.org/licenses/by/4.0/)",
      "source": "https://sketchfab.com/3d-models/ukraine-war-destroyed-tank-by-atgm-3c1715bd208841dab267cae438854fed",
      "title": "ukraine war destroyed tank by atgm"
    },
    "generator": "Sketchfab-13.68.0",
    "version": "2.0"
  },
  "bufferViews": [
    {
      "buffer": 0,
      "byteLength": 1377480,
      "name": "floatBufferViews",
      "target": 34963
    },
    {
      "buffer": 0,
      "byteLength": 905816,
      "byteOffset": 1377480,
      "byteStride": 8,
      "name": "floatBufferViews",
      "target": 34962
    },
    {
      "buffer": 0,
      "byteLength": 2717448,
      "byteOffset": 2283296,
      "byteStride": 12,
      "name": "floatBufferViews",
      "target": 34962
    },
    {
      "buffer": 0,
      "byteLength": 1811632,
      "byteOffset": 5000744,
      "byteStride": 16,
      "name": "floatBufferViews",
      "target": 34962
    }
  ],
  "buffers": [
    {
      "byteLength": 6812376,
      "uri": "scene.bin"
    }
  ],
  "images": [
    {
      "uri": "textures/material_0_baseColor.jpeg"
    },
    {
      "uri": "textures/material_0_metallicRoughness.png"
    },
    {
      "uri": "textures/material_0_normal.png"
    }
  ],
  "materials": [
    {
      "doubleSided": true,
      "name": "material_0",
      "normalTexture": {
        "index": 2,
        "scale": 0.7725737830820055
      },
      "occlusionTexture": {
        "index": 1
      },
      "pbrMetallicRoughness": {
        "baseColorTexture": {
          "index": 0
        },
        "metallicFactor": 0.0,
        "metallicRoughnessTexture": {
          "index": 1
        }
      }
    }
  ],
  "meshes": [
    {
      "name": "Object_0",
      "primitives": [
        {
          "attributes": {
            "NORMAL": 1,
            "POSITION": 0,
            "TANGENT": 2,
            "TEXCOORD_0": 3
          },
          "indices": 4,
          "material": 0,
          "mode": 4
        }
      ]
    },
    {
      "name": "Object_1",
      "primitives": [
        {
          "attributes": {
            "NORMAL": 6,
            "POSITION": 5,
            "TANGENT": 7,
            "TEXCOORD_0": 8
          },
          "indices": 9,
          "material": 0,
          "mode": 4
        }
      ]
    }
  ],
  "nodes": [
    {
      "children": [
        1
      ],
      "matrix": [
        1.0,
        0.0,
        0.0,
        0.0,
        0.0,
        2.220446049250313e-16,
        -1.0,
        0.0,
        0.0,
        1.0,
        2.220446049250313e-16,
        0.0,
        0.0,
        0.0,
        0.0,
        1.0
      ],
      "name": "Sketchfab_model"
    },
    {
      "children": [
        2,
        3
      ],
      "name": "tankdestroyedF.obj.cleaner.materialmerger.gles"
    },
    {
      "mesh": 0,
      "name": "Object_2"
    },
    {
      "mesh": 1,
      "name": "Object_3"
    }
  ],
  "samplers": [
    {
      "magFilter": 9729,
      "minFilter": 9987,
      "wrapS": 10497,
      "wrapT": 10497
    }
  ],
  "scene": 0,
  "scenes": [
    {
      "name": "Sketchfab_Scene",
      "nodes": [
        0
      ]
    }
  ],
  "textures": [
    {
      "sampler": 0,
      "source": 0
    },
    {
      "sampler": 0,
      "source": 1
    },
    {
      "sampler": 0,
      "source": 2
    }
  ]
}
